HIERARCHY
ROOT Hips
{
	OFFSET -0.001795 -0.223333 0.028219
	CHANNELS 6 Xposition Yposition Zposition Zrotation Yrotation Xrotation 
	JOINT LeftUpLeg
	{
		OFFSET 0.069520 -0.091406 -0.006815
		CHANNELS 3 Zrotation Yrotation Xrotation
		JOINT LeftLeg
		{
			OFFSET 0.034277 -0.375199 -0.004496
			CHANNELS 3 Zrotation Yrotation Xrotation
			JOINT LeftFoot
			{
				OFFSET -0.013596 -0.397961 -0.043693
				CHANNELS 3 Zrotation Yrotation Xrotation
				JOINT LeftToe
				{
					OFFSET 0.026358 -0.055791 0.119288
					CHANNELS 3 Zrotation Yrotation Xrotation
					End Site
					{
						OFFSET 0.000000 0.000000 0.000000
					}
				}
			}
		}
	}
	JOINT RightUpLeg
	{
		OFFSET -0.067670 -0.090522 -0.004320
		CHANNELS 3 Zrotation Yrotation Xrotation
		JOINT RightLeg
		{
			OFFSET -0.038290 -0.382569 -0.008850
			CHANNELS 3 Zrotation Yrotation Xrotation
			JOINT RightFoot
			{
				OFFSET 0.015774 -0.398415 -0.042312
				CHANNELS 3 Zrotation Yrotation Xrotation
				JOINT RightToe
				{
					OFFSET -0.025372 -0.048144 0.123348
					CHANNELS 3 Zrotation Yrotation Xrotation
					End Site
					{
						OFFSET 0.000000 0.000000 0.000000
					}
				}
			}
		}
	}
	JOINT Spine
	{
		OFFSET -0.002533 0.108963 -0.026696
		CHANNELS 3 Zrotation Yrotation Xrotation
		JOINT Spine1
		{
			OFFSET 0.005487 0.135180 0.001092
			CHANNELS 3 Zrotation Yrotation Xrotation
			JOINT Spine2
			{
				OFFSET 0.001457 0.052922 0.025425
				CHANNELS 3 Zrotation Yrotation Xrotation
				JOINT Neck
				{
					OFFSET -0.002778 0.213870 -0.042857
					CHANNELS 3 Zrotation Yrotation Xrotation
					JOINT Head
					{
						OFFSET 0.005152 0.064970 0.051349
						CHANNELS 3 Zrotation Yrotation Xrotation
						End Site
						{
							OFFSET 0.000000 0.000000 0.000000
						}
					}
				}
				JOINT LeftShoulder
				{
					OFFSET 0.078845 0.121749 -0.034090
					CHANNELS 3 Zrotation Yrotation Xrotation
					JOINT LeftArm
					{
						OFFSET 0.090977 0.030469 -0.008868
						CHANNELS 3 Zrotation Yrotation Xrotation
						JOINT LeftForeArm
						{
							OFFSET 0.259612 -0.012772 -0.027456
							CHANNELS 3 Zrotation Yrotation Xrotation
							JOINT LeftHand
							{
								OFFSET 0.249234 0.008986 -0.001171
								CHANNELS 3 Zrotation Yrotation Xrotation
								End Site
								{
									OFFSET 0.000000 0.000000 0.000000
								}
							}
						}
					}
				}
				JOINT RightShoulder
				{
					OFFSET -0.081759 0.118833 -0.038615
					CHANNELS 3 Zrotation Yrotation Xrotation
					JOINT RightArm
					{
						OFFSET -0.096012 0.032551 -0.009143
						CHANNELS 3 Zrotation Yrotation Xrotation
						JOINT RightForeArm
						{
							OFFSET -0.253742 -0.013329 -0.021401
							CHANNELS 3 Zrotation Yrotation Xrotation
							JOINT RightHand
							{
								OFFSET -0.255298 0.007772 -0.005559
								CHANNELS 3 Zrotation Yrotation Xrotation
								End Site
								{
									OFFSET 0.000000 0.000000 0.000000
								}
							}
						}
					}
				}
			}
		}
	}
}
MOTION
Frames: 14
Frame Time: 0.050000
0.000000 0.992954 0.000000 -4.207586 -0.086183 -7.459177 -0.639534 1.898343 20.026904 0.374637 -0.185146 3.792992 1.888217 11.464539 29.917026 0.000000 0.000000 0.000000 -2.372679 0.176755 -1.892273 -2.511706 1.215137 14.977801 -1.360435 -11.407959 30.548446 0.000000 0.000000 0.000000 2.605337 -0.648533 10.360529 -14.082001 1.488257 -52.556657 8.180877 -5.853219 31.835379 10.379099 -14.703771 11.894062 0.000000 0.000000 0.000000 13.936715 -38.172284 6.359784 38.578981 -28.650695 -5.403376 24.338782 11.275020 1.369119 0.000000 0.000000 0.000000 -13.000352 19.000982 4.275318 -42.764051 35.329016 -13.691738 -12.972806 -15.894290 1.086678 0.000000 0.000000 0.000000 
0.000013 1.000909 -0.016059 -4.674302 -0.352350 -6.675557 -0.145089 1.578825 17.373348 -0.878329 -0.039366 5.149842 2.591025 11.035011 22.582654 0.000000 0.000000 0.000000 -2.572708 0.327675 -3.754553 -3.990448 1.742436 16.998490 -0.911309 -10.601535 29.018583 0.000000 0.000000 0.000000 0.678218 -0.699617 14.200079 -6.343946 0.711808 -63.245001 4.426470 -0.994208 41.224801 13.758847 -18.413028 5.375300 0.000000 0.000000 0.000000 17.847095 -34.793562 3.504021 40.861919 -30.245652 -6.604696 22.565682 9.235333 0.589009 0.000000 0.000000 0.000000 -13.729163 17.692005 2.422381 -49.909896 33.979778 -12.428681 -2.049529 -13.350122 -0.392252 0.000000 0.000000 0.000000 
-0.000072 1.006854 -0.032174 -4.424858 -1.367965 -8.761345 0.118104 1.768847 19.413700 -0.240287 -0.111640 4.422609 2.214244 10.216456 21.471001 0.000000 0.000000 0.000000 -3.259865 0.315909 -3.844119 -5.280187 2.220684 18.010920 0.422324 -9.225192 29.944495 0.000000 0.000000 0.000000 2.423514 -1.132207 18.083241 -11.066466 -0.065746 -69.705177 6.322775 -3.317992 52.226168 15.638972 -19.301826 -4.339587 0.000000 0.000000 0.000000 26.362966 -32.847353 -2.556406 39.317120 -27.171835 -2.723418 22.698823 9.152224 0.357008 0.000000 0.000000 0.000000 -20.264096 14.634465 -0.393718 -49.894988 31.061696 -9.882019 -0.221395 -11.319677 -0.536246 0.000000 0.000000 0.000000 
-0.000547 1.014691 -0.046911 -4.649329 -0.243674 -8.886276 0.209569 1.448751 16.736295 -0.328254 -0.221118 8.046416 1.935259 9.539539 19.191909 0.000000 0.000000 0.000000 -4.280494 0.367564 -5.187483 -4.744913 2.079355 18.569328 -0.258208 -10.198389 31.689985 0.000000 0.000000 0.000000 1.845997 -1.227109 20.528867 -14.446761 -1.402354 -77.992879 8.843167 -7.675659 62.678715 18.927146 -20.657511 -17.015337 0.000000 0.000000 0.000000 32.750644 -33.756621 -8.258664 40.728003 -23.780874 0.131747 18.611217 11.087142 0.434498 0.000000 0.000000 0.000000 -23.763643 13.118035 -2.299931 -53.480163 27.243679 -8.191712 4.762246 -11.314242 -1.165366 0.000000 0.000000 0.000000 
-0.001876 1.022128 -0.058736 -4.167059 0.094887 -9.518947 0.335145 1.206377 14.226344 -0.755447 -0.218194 10.390869 1.090379 8.383362 19.099357 0.000000 0.000000 0.000000 -5.549783 0.366111 -6.287988 -4.430649 2.095350 19.935421 -2.131888 -12.214485 29.509017 0.000000 0.000000 0.000000 0.711569 -1.195032 23.333604 -14.990174 -1.981184 -82.538520 10.017911 -7.949180 68.098658 19.537401 -19.867445 -22.911893 0.000000 0.000000 0.000000 39.707588 -30.769816 -12.996404 39.296184 -26.302535 -0.215995 17.259805 13.567402 0.571489 0.000000 0.000000 0.000000 -26.464444 11.295973 -4.362306 -54.093711 26.324569 -6.780063 6.964467 -11.524813 -1.530334 0.000000 0.000000 0.000000 
-0.003110 1.031407 -0.066932 -4.749932 -0.188661 -10.354042 1.126188 0.996174 12.736602 -1.627936 -0.072536 11.973262 1.603496 8.866992 18.124423 0.000000 0.000000 0.000000 -5.476844 0.379074 -6.503575 -4.087886 2.006721 19.920432 -3.264942 -13.588803 28.267666 0.000000 0.000000 0.000000 0.065421 -1.184882 25.449701 -11.513692 -1.548580 -86.241610 9.922553 -6.045814 72.939664 20.122840 -19.091150 -26.503327 0.000000 0.000000 0.000000 43.172053 -28.362966 -15.398452 37.527596 -26.967137 -0.162919 17.495767 15.251125 0.659574 0.000000 0.000000 0.000000 -29.546175 12.143622 -6.948463 -52.987449 25.994074 -4.851706 7.060518 -12.230188 -1.685961 0.000000 0.000000 0.000000 
-0.003611 1.040933 -0.071584 -4.857212 -0.769112 -10.478673 1.272260 0.876172 11.180901 -1.616963 -0.087416 13.213431 1.673155 8.934860 18.325526 0.000000 0.000000 0.000000 -5.794536 0.393472 -6.943964 -4.196690 1.999888 19.126008 -3.101771 -13.500644 28.393054 0.000000 0.000000 0.000000 -0.633637 -1.079227 26.859901 -11.613443 -1.755327 -88.269924 10.996933 -7.262905 74.212163 18.537066 -17.961699 -26.899733 0.000000 0.000000 0.000000 44.779166 -26.785387 -16.767707 37.114371 -27.887697 -0.044796 17.547289 16.365339 0.762013 0.000000 0.000000 0.000000 -31.985849 12.753076 -7.824508 -52.955264 25.812102 -4.882961 7.026515 -12.294929 -1.700061 0.000000 0.000000 0.000000 
-0.002955 1.053527 -0.073813 -5.566944 -1.345726 -10.938066 2.219115 0.770120 10.773631 -2.295132 0.075857 13.756197 1.716383 8.912272 18.203736 0.000000 0.000000 0.000000 -5.628962 0.404308 -6.863805 -3.771569 1.917589 19.314139 -2.546620 -12.889802 28.619809 0.000000 0.000000 0.000000 -1.538022 -0.922250 28.323808 -5.990793 -0.386689 -91.205835 9.974473 -3.476628 77.754625 17.932666 -16.340087 -27.541764 0.000000 0.000000 0.000000 45.415170 -24.680014 -16.799199 38.551399 -28.977996 -1.168358 16.402021 17.972401 0.553784 0.000000 0.000000 0.000000 -32.838223 12.763621 -10.104606 -52.262554 27.320228 -3.938019 5.100317 -13.246424 -1.573142 0.000000 0.000000 0.000000 
-0.001212 1.066940 -0.074954 -6.162826 -1.961106 -11.136817 2.966288 0.696045 10.429511 -2.515923 0.143706 13.906620 2.226688 9.704611 18.839553 0.000000 0.000000 0.000000 -5.666690 0.440591 -7.410316 -3.390590 1.854176 19.557292 -2.533648 -13.181425 30.087388 0.000000 0.000000 0.000000 -2.489869 -0.713544 29.791697 0.401845 1.513882 -91.960075 8.451305 1.549621 78.893598 17.446564 -14.718624 -26.905653 0.000000 0.000000 0.000000 44.506179 -23.191495 -15.013564 41.627121 -28.417995 -2.422372 15.622471 18.278979 0.283171 0.000000 0.000000 0.000000 -32.491584 13.721996 -11.433282 -52.665734 28.146867 -3.032063 4.683191 -13.878402 -1.618519 0.000000 0.000000 0.000000 
0.001785 1.082021 -0.075885 -6.831429 -2.158993 -11.289326 3.614199 0.584580 9.442177 -2.689256 0.177143 15.469478 2.179937 9.416398 17.809060 0.000000 0.000000 0.000000 -5.874404 0.515974 -8.970153 -2.894210 1.869283 21.489692 -2.181476 -12.856915 30.923257 0.000000 0.000000 0.000000 -2.712350 -0.684023 30.790872 1.051540 1.613032 -93.139035 8.433878 0.565888 79.831377 15.666153 -13.647088 -25.729324 0.000000 0.000000 0.000000 44.641820 -22.047713 -15.665199 42.449342 -28.575480 -2.146204 13.025574 18.679505 0.039994 0.000000 0.000000 0.000000 -33.157670 14.466354 -11.680006 -51.252678 27.721811 -2.723117 2.401438 -14.185224 -1.332505 0.000000 0.000000 0.000000 
0.005225 1.096632 -0.076253 -7.100048 -2.999564 -11.792218 4.086311 0.556932 9.163764 -3.323139 0.373231 17.003889 2.977884 10.297813 16.836926 0.000000 0.000000 0.000000 -7.060374 0.499269 -10.132361 -1.083806 1.516701 23.695755 -3.502133 -14.818205 32.250635 0.000000 0.000000 0.000000 -3.533203 -0.440554 32.593995 5.693925 3.113913 -92.552093 7.989705 5.203920 79.797977 15.960013 -12.746799 -24.667894 0.000000 0.000000 0.000000 45.882296 -21.277364 -14.684365 42.750838 -27.161368 -2.680336 12.089102 18.589025 -0.102646 0.000000 0.000000 0.000000 -32.029382 14.184356 -12.376494 -50.136527 27.561390 -1.036672 -0.109252 -14.166361 -1.000244 0.000000 0.000000 0.000000 
0.008636 1.111105 -0.075327 -7.071091 -2.505587 -11.983705 4.273572 0.479166 8.192375 -3.435210 0.380205 19.255129 3.601643 10.826472 14.298160 0.000000 0.000000 0.000000 -7.822632 0.506251 -12.211961 0.881439 1.034193 27.666595 -4.613885 -15.931684 30.702809 0.000000 0.000000 0.000000 -3.802429 -0.420345 33.591644 3.271699 2.314144 -93.239640 7.783878 1.829216 79.462415 14.813586 -14.027656 -20.308012 0.000000 0.000000 0.000000 44.161462 -21.220251 -15.095333 43.524870 -27.735380 -1.987178 11.253902 18.267203 -0.164697 0.000000 0.000000 0.000000 -29.699529 14.283308 -10.349743 -51.747781 26.118731 -1.619038 -2.149083 -13.768022 -0.756795 0.000000 0.000000 0.000000 
0.011615 1.124541 -0.072977 -7.198551 -1.999552 -12.088094 4.370657 0.409387 7.206284 -3.916046 0.494321 21.242665 3.731850 10.505471 11.261136 0.000000 0.000000 0.000000 -8.370771 0.534702 -15.145253 3.356215 0.187165 32.495367 -5.583053 -16.699360 25.878981 0.000000 0.000000 0.000000 -3.962390 -0.436423 34.898948 8.509344 4.033466 -94.243762 6.370146 8.077962 81.228794 18.197364 -16.820855 -18.181465 0.000000 0.000000 0.000000 42.583352 -19.748080 -12.534949 46.717515 -28.087338 -4.694416 12.628726 19.225550 -0.277255 0.000000 0.000000 0.000000 -25.845106 13.176509 -10.634502 -52.690992 25.697688 0.425237 -3.703563 -14.013719 -0.654113 0.000000 0.000000 0.000000 
0.014184 1.132959 -0.069686 -7.578083 -1.262088 -12.297929 4.430559 0.334195 6.059692 -3.188359 0.190343 24.020441 3.096011 8.941187 8.686368 0.000000 0.000000 0.000000 -9.450698 0.434784 -18.425444 6.073589 -1.112207 38.673480 -6.845692 -18.113086 22.135916 0.000000 0.000000 0.000000 -3.848793 -0.582990 37.253854 8.853570 4.324260 -94.617400 5.412668 8.506454 80.213510 18.269740 -17.911372 -15.806441 0.000000 0.000000 0.000000 36.797003 -18.990315 -9.516921 52.925353 -28.541843 -6.704935 13.891809 19.157453 -0.377473 0.000000 0.000000 0.000000 -22.565622 12.131234 -8.805802 -55.136366 23.671812 0.795752 -5.919400 -13.161853 -0.437118 0.000000 0.000000 0.000000 
